<?xml version="1.0" standalone="no"?><!DOCTYPE svg PUBLIC "-//W3C//DTD SVG 1.1//EN" "http://www.w3.org/Graphics/SVG/1.1/DTD/svg11.dtd"><svg t="1740910467103" class="icon" viewBox="0 0 1024 1024" version="1.1" xmlns="http://www.w3.org/2000/svg" p-id="1485" xmlns:xlink="http://www.w3.org/1999/xlink" width="200" height="200"><path d="M896 405.333333c34.133333 0 59.733333 25.6 64 55.466667l-81.066667 332.8v17.066667c0 34.133333-29.866667 64-64 64H128c-34.133333 0-59.733333-25.6-64-55.466667l81.066667-332.8V469.333333c0-34.133333 29.866667-64 64-64H896M896 341.333333H213.333333c-72.533333 0-128 59.733333-128 128l-85.333333 341.333334c0 68.266667 59.733333 128 128 128h682.666667c68.266667 0 128-59.733333 128-128l85.333333-341.333334c0-68.266667-55.466667-128-128-128z" fill="#888888" p-id="1486"></path><path d="M396.8 149.333333l76.8 102.4 21.333333 25.6H810.666667c34.133333 0 64 29.866667 64 64v55.466667l42.666666 17.066667c25.6 8.533333 38.4 29.866667 42.666667 55.466666l-81.066667 332.8v8.533334c0 34.133333-29.866667 64-64 64H128c-34.133333 0-64-29.866667-64-64V213.333333c0-34.133333 29.866667-64 64-64h268.8M426.666667 85.333333H128C59.733333 85.333333 0 140.8 0 213.333333v597.333334c0 68.266667 55.466667 128 128 128h682.666667c68.266667 0 128-59.733333 128-128l85.333333-341.333334c0-55.466667-34.133333-102.4-85.333333-119.466666V341.333333c0-68.266667-55.466667-128-128-128h-285.866667L426.666667 85.333333z" fill="#888888" p-id="1487"></path></svg>