<?xml version="1.0" standalone="no"?><!DOCTYPE svg PUBLIC "-//W3C//DTD SVG 1.1//EN" "http://www.w3.org/Graphics/SVG/1.1/DTD/svg11.dtd"><svg t="1740822339884" class="icon" viewBox="0 0 1024 1024" version="1.1" xmlns="http://www.w3.org/2000/svg" p-id="4494" xmlns:xlink="http://www.w3.org/1999/xlink" width="200" height="200"><path d="M512 930.857143l365.714286-199.428571 0-363.428571-365.714286 133.142857 0 429.714286zm-36.571429-494.285714l398.857143-145.142857-398.857143-145.142857-398.857143 145.142857zm475.428571-144l0 438.857143q0 20-10.285714 37.142857t-28 26.857143l-402.285714 219.428571q-16 9.142857-34.857143 9.142857t-34.857143-9.142857l-402.285714-219.428571q-17.714286-9.714286-28-26.857143t-10.285714-37.142857l0-438.857143q0-22.857143 13.142857-41.714286t34.857143-26.857143l402.285714-146.285714q12.571429-4.571429 25.142857-4.571429t25.142857 4.571429l402.285714 146.285714q21.714286 8 34.857143 26.857143t13.142857 41.714286z" p-id="4495"></path></svg>