<?xml version="1.0" standalone="no"?><!DOCTYPE svg PUBLIC "-//W3C//DTD SVG 1.1//EN" "http://www.w3.org/Graphics/SVG/1.1/DTD/svg11.dtd"><svg t="1740823640912" class="icon" viewBox="0 0 1024 1024" version="1.1" xmlns="http://www.w3.org/2000/svg" p-id="8124" xmlns:xlink="http://www.w3.org/1999/xlink" width="200" height="200"><path d="M243.11808 568.38144c0 33.38752 30.78656 60.53376 68.65408 60.53376s68.66432-27.15136 68.66432-60.53376c0-33.3824-30.7968-60.52864-68.66432-60.52864-37.8624-0.00512-68.65408 27.14624-68.65408 60.52864z m68.6592-37.07392c24.94464 0 45.2096 16.64 45.2096 37.0688 0 20.44928-20.26496 37.07392-45.2096 37.07392-24.93952 0-45.22496-16.62464-45.22496-37.07392-0.00512-20.4288 20.28544-37.0688 45.22496-37.0688zM409.39008 726.50752c37.84192 0 68.6592-27.14624 68.6592-60.51328 0-33.38752-30.81728-60.53888-68.6592-60.53888-37.86752 0-68.68992 27.16672-68.68992 60.53888s30.8224 60.51328 68.68992 60.51328z m0-97.59232c24.91392 0 45.20448 16.62464 45.20448 37.07904s-20.29056 37.07392-45.20448 37.07392c-24.9344 0-45.2352-16.61952-45.2352-37.07392s20.3008-37.07904 45.2352-37.07904zM591.8976 386.18112c0-33.3824-30.79168-60.52864-68.64896-60.52864-37.86752 0-68.6592 27.14624-68.6592 60.52864s30.78656 60.54912 68.6592 60.54912c37.86752 0 68.64896-27.16672 68.64896-60.54912z m-113.84832 0c0-20.43392 20.26496-37.07392 45.20448-37.07392 24.94464 0 45.2352 16.64 45.2352 37.07392 0 20.44928-20.29056 37.07392-45.2352 37.07392s-45.20448-16.62464-45.20448-37.07392zM368.71168 495.52384c37.86752 0 68.6848-27.15648 68.6848-60.53888 0-33.37728-30.81216-60.53376-68.6848-60.53376-37.86752 0-68.65408 27.15648-68.65408 60.53376 0 33.3824 30.78656 60.53888 68.65408 60.53888z m0-97.61792c24.93952 0 45.22496 16.64 45.22496 37.07904 0 20.44928-20.29056 37.0944-45.22496 37.0944-24.94464 0-45.2096-16.64-45.2096-37.0944 0-20.43392 20.26496-37.07904 45.2096-37.07904z" fill="" p-id="8125"></path><path d="M784.96256 369.73056l12.67712-35.44064c3.5328-5.1968 6.93248-11.19232 9.984-16.64 1.71008-3.06688 3.30752-5.9136 4.74624-8.24832 5.62688-9.15456 11.02336-20.55168 15.29344-32.11776 7.71584-21.1456 8.38656-47.19104 1.60768-63.33952-4.00896-9.57952-7.45984-18.31424-8.65792-27.91936-0.62976-4.61312-0.53248-10.19392 0.22016-15.72864 0.4096-2.88256 1.6384-5.92896 3.2-9.7792l7.96672-19.85024-19.06688 1.7408c-5.15072 0.47104-8.68864 3.56864-11.24864 5.8624l-1.2288 1.05984c-1.77664 1.42336-3.57888 2.71872-5.34528 3.99872-1.83296 1.34144-3.66592 2.68288-5.49376 4.10624a91.97568 91.97568 0 0 0-14.74048 14.1824c-7.8592 9.32352-19.00032 23.86944-27.42784 40.33024-5.27872 10.37312-12.65152 26.39872-17.41824 40.14592-4.48512 12.87168-6.15936 26.1376-7.60832 37.86752l-1.00864 7.77728c-0.34304 2.75968-0.89088 5.62688-1.42336 8.59136l-0.22016 1.22368-12.24704 34.26304a269.98784 269.98784 0 0 0-19.55328 34.72896c-4.70528 10.33728-9.06752 21.28896-13.696 32.8704l-5.01248 12.58496a2355.712 2355.712 0 0 0-19.5072 50.7904 2136.832 2136.832 0 0 0-18.01728 50.63168l-7.06048-14.31552c-3.75296 1.84832-6.94272 3.77344-9.79456 5.87776-11.16672 8.36096-17.13152 21.12-16.8448 35.93216 0.37376 20.32128 12.73344 43.42784 29.33248 54.90688 10.98752 7.58272 24.36608 13.30688 37.36064 18.84672 20.29056 8.68352 41.30816 17.66912 51.52256 33.28512 5.9136 9.0368 7.39328 26.51648 4.08064 46.27968-56.99072 48.86528-137.6 76.84608-221.87008 76.84608-165.85216 0-300.76416-105.9072-300.76416-236.02176 0-130.16064 134.912-236.05248 300.76416-236.05248 69.9648 0 138.112 19.328 191.88224 54.43072l12.83584-19.65568c-57.56416-37.5552-130.26304-58.2144-204.71296-58.2144-178.78528 0-324.224 116.40832-324.224 259.49184 0 143.04768 145.43872 259.456 324.224 259.456 17.28512 0 34.42688-1.12128 51.28192-3.28704-6.04672 25.97888-10.40896 50.97984-12.24704 70.47168-1.99168 18.40128-1.85856 29.52192-1.85856 29.98784l0.1024 8.13056 21.48864 7.71584 5.27872-6.20032c0.28672-0.35328 7.45984-8.9088 17.54624-24.27392 11.62752-17.28512 24.75008-40.57088 36.9152-65.59232 4.23424-8.71936 8.43776-18.14016 12.70784-27.84256l-14.67904-6.49728c46.90944-14.45888 89.51808-37.5808 123.89888-67.98336l2.9696-2.62656 0.77824-3.8912c2.60096-13.2096 7.1424-46.23872-6.7584-67.49184-14.10048-21.5808-39.51616-32.44544-61.96224-42.02496-12.43136-5.31968-24.18176-10.34752-33.22368-16.58368-5.60128-3.87072-11.53536-11.33056-15.30368-19.82976l15.08352 4.82304a2135.40864 2135.40864 0 0 1 31.26784-90.59328 2362.58816 2362.58816 0 0 1 19.24608-50.176l5.04832-12.66176c4.5312-11.28448 8.76544-21.96992 13.21984-31.67232a241.8176 241.8176 0 0 1 15.61088-28.416l36.40832 13.06624a239.16544 239.16544 0 0 1-5.89312 31.81056c-2.78528 10.4704-6.29248 21.49376-10.02496 33.19296l-4.01408 12.6464a2513.47968 2513.47968 0 0 1-17.00352 51.11296 2057.8048 2057.8048 0 0 1-39.60832 105.38496l21.71904 8.87808c13.75744-33.64352 27.2128-69.5296 40.07936-106.5984a2667.92448 2667.92448 0 0 0 17.17248-51.70176l4.00896-12.61056 0.64-2.0224c11.29984 18.0224 19.64032 37.00224 24.70912 56.5248-0.66048 3.2-1.60256 6.79936-3.09248 9.856-5.05344 10.33728-13.99296 18.84672-45.2608 10.80832l-5.85728 22.69696c5.49888 1.42848 15.58016 4.01408 26.8032 4.01408 16.1536 0 34.70336-5.37088 45.3888-27.24352 3.1232-6.4512 4.64384-13.2096 5.56544-18.36544l0.47104-2.46272-0.5888-2.46784c-6.13888-24.78592-16.78848-48.77824-31.73888-71.25504l-13.6192 9.04192c2.49856-7.99744 4.8896-15.84128 6.9376-23.51616a273.95072 273.95072 0 0 0 6.88128-39.06048z m-189.1072 441.4976c-11.5968 23.75168-23.95648 45.82912-35.02592 62.31552 1.83808-18.89792 6.10816-43.17696 12.05248-68.46976l-19.04128-4.48a391.10656 391.10656 0 0 0 51.84-10.82368 721.29536 721.29536 0 0 1-9.82528 21.45792z m25.60512-260.78208c-0.13824-6.77376 2.048-11.89376 6.4256-15.70304a1873.9456 1873.9456 0 0 0-6.13376 18.59072c-0.11264-0.9728-0.27136-1.9456-0.29184-2.88768z m114.432-218.47552l33.38752 11.97568-0.18432 0.50688-33.35168-11.98592 0.14848-0.49664z m8.7296-31.10912l1.0496-8.00256c1.38752-11.0592 2.8416-22.53824 6.47168-33.05984 4.4288-12.67712 11.25888-27.53024 16.18944-37.20192 7.38816-14.44864 17.38752-27.4688 24.45824-35.88096 1.36192-1.6128 2.6624-3.05152 4.01408-4.42368 0.06656 2.304 0.26112 4.54656 0.53248 6.72768 1.71008 13.49632 6.67136 25.34912 10.31168 33.98656 3.8912 9.3184 4.22912 29.15328-2.02752 46.208-3.66592 9.97888-8.4992 20.13696-13.28128 27.93472a398.70464 398.70464 0 0 0-5.18144 9.00608 284.7744 284.7744 0 0 1-6.01088 10.4192l-36.8896-13.24032c0.16896-0.82944 0.26112-1.64864 0.36352-2.47296z" fill="" p-id="8126"></path></svg>