<?xml version="1.0" standalone="no"?><!DOCTYPE svg PUBLIC "-//W3C//DTD SVG 1.1//EN" "http://www.w3.org/Graphics/SVG/1.1/DTD/svg11.dtd"><svg t="1740832371226" class="icon" viewBox="0 0 1024 1024" version="1.1" xmlns="http://www.w3.org/2000/svg" p-id="12664" xmlns:xlink="http://www.w3.org/1999/xlink" width="200" height="200"><path d="M199.672 488.748c3.049 1.747 5.866 0.933 8.528 0.934 230.543 0.047 461.085 0.044 691.628 0.044 8.955 0 8.955 0.001 8.956 9.271 0 9.752-0.302 19.515 0.124 29.249 0.221 5.061-1.513 6.616-6.225 5.905-1.59-0.241-3.245-0.037-4.87-0.037-229.846 0-459.693-0.004-689.539 0.040-2.673 0.001-5.478-0.746-8.181 0.654 0.855 2.717 3.15 4.055 4.882 5.787 103.955 103.891 207.908 207.785 312.036 311.505 4.356 4.339 4.426 6.481-0.063 10.513-7.761 6.971-15.1 14.455-22.18 22.125-3.398 3.681-5.17 3.196-8.508-0.154-50.309-50.491-100.772-100.827-151.196-151.2-72.271-72.195-144.502-144.434-216.913-216.488-4.033-4.014-4.156-5.814-0.047-9.908 122.663-122.275 245.187-244.687 367.626-367.185 3.604-3.607 5.62-4.545 9.503-0.26 7.319 8.077 15.196 15.663 23.114 23.168 2.972 2.816 3.482 4.415 0.16 7.493-7.827 7.254-15.2 15.001-22.755 22.546-96.913 96.805-193.826 193.61-290.734 290.419-1.759 1.757-3.442 3.589-5.345 5.58z" fill="#FFFFFF" p-id="12665"></path></svg>