<?xml version="1.0" standalone="no"?><!DOCTYPE svg PUBLIC "-//W3C//DTD SVG 1.1//EN" "http://www.w3.org/Graphics/SVG/1.1/DTD/svg11.dtd"><svg t="1740828650068" class="icon" viewBox="0 0 1024 1024" version="1.1" xmlns="http://www.w3.org/2000/svg" p-id="10857" xmlns:xlink="http://www.w3.org/1999/xlink" width="200" height="200"><path d="M129.37 568.14a65.33 65.33 0 0 1-42.81-114.72l343.05-297.11c47-40.68 117.79-40.68 164.75 0l343.07 297.11a65.33 65.33 0 1 1-85.53 98.77L512 257.84 172.12 552.19a65.11 65.11 0 0 1-42.75 15.95z" fill="#FFFFFF" p-id="10858"></path><path d="M819.23 591.32l-18.3-15.86-255.39-221.17a51.25 51.25 0 0 0-67.09 0L223.06 575.46l-18.3 15.86a48.93 48.93 0 0 0-16.9 37v245.44a24.45 24.45 0 0 0 24.45 24.44h215V657a28.14 28.14 0 0 1 28.14-28.14h113.09A28.14 28.14 0 0 1 596.68 657v241.2h215a24.45 24.45 0 0 0 24.45-24.44V628.3a48.89 48.89 0 0 0-16.9-36.98z" fill="#FFFFFF" p-id="10859"></path></svg>